{"glyphs":{":":{"x_min":0,"x_max":333,"ha":333,"o":"m 222 511 l 370 511 l 339 366 l 191 366 z m 144 146 l 292 146 l 261 0 l 113 0 z"},"$":{"x_min":0,"x_max":556,"ha":556,"o":"m 320 91 q 359 96 380 109 q 416 131 427 187 q 436 229 413 253 q 398 267 360 282 z m 382 602 q 339 601 314 579 q 289 557 281 520 q 272 479 298 455 q 312 441 346 430 z m 277 -116 l 229 -116 l 250 -19 q 156 -8 116 23 q 44 80 74 215 l 206 215 q 200 153 208 132 q 220 100 273 90 l 317 298 l 280 310 q 193 337 165 386 q 137 435 152 504 q 162 549 184 586 q 207 624 240 650 q 282 685 327 698 q 354 707 405 710 l 419 775 l 465 775 l 451 709 q 530 703 568 670 q 640 618 618 501 l 489 501 q 495 544 488 564 q 477 599 429 603 l 389 417 q 497 376 530 346 q 585 294 565 201 q 540 78 437 22 q 375 -12 298 -18 z"},"?":{"x_min":0,"x_max":611,"ha":611,"o":"m 268 141 l 414 141 l 384 0 l 238 0 z m 304 690 q 369 727 453 727 q 563 727 625 674 q 687 622 665 518 q 651 455 610 411 q 586 385 525 344 l 484 317 q 452 295 436 266 q 426 247 417 208 l 286 208 q 306 291 325 322 q 345 354 406 395 l 448 422 q 468 436 482 451 q 508 478 515 510 q 522 547 507 578 q 492 608 434 608 q 377 608 346 571 q 314 533 306 493 l 165 493 q 200 632 304 690 z"},"<":{"x_min":0,"x_max":584,"ha":584,"o":"m 81 327 l 702 546 l 673 410 l 232 265 l 611 119 l 583 -17 l 54 202 z"},"'":{"x_min":0,"x_max":238,"ha":238,"o":"m 334 720 l 247 422 l 162 422 l 201 720 z"},"=":{"x_min":0,"x_max":584,"ha":584,"o":"m 658 443 l 631 314 l 102 314 l 129 443 z m 610 215 l 583 86 l 54 86 l 81 215 z"},"a":{"x_min":0,"x_max":556,"ha":556,"o":"m 413 259 q 398 250 384 245 q 369 240 345 236 l 312 230 q 267 222 245 211 q 209 192 201 152 q 193 116 209 100 q 226 84 254 84 q 299 84 342 111 q 386 137 402 207 z m 342 324 q 382 329 400 336 q 433 349 438 375 q 445 408 425 421 q 405 433 361 433 q 312 433 286 409 q 268 391 256 360 l 122 360 q 142 430 186 475 q 256 545 390 545 q 478 545 538 510 q 599 476 578 379 l 526 135 q 521 110 514 74 q 510 46 514 37 q 519 27 531 21 l 527 0 l 376 0 q 373 16 374 30 q 374 44 376 62 q 341 31 299 9 q 248 -17 191 -17 q 119 -17 81 25 q 42 66 59 142 q 80 240 165 284 q 211 308 294 318 z"},"L":{"x_min":0,"x_max":611,"ha":611,"o":"m 229 720 l 379 720 l 254 129 l 610 129 l 583 0 l 76 0 z"},"3":{"x_min":0,"x_max":556,"ha":556,"o":"m 209 217 q 200 175 208 147 q 222 96 289 96 q 330 96 367 124 q 403 152 415 205 q 429 274 377 298 q 348 311 279 311 l 300 411 q 368 412 397 424 q 448 444 461 507 q 470 547 452 573 q 434 598 391 598 q 341 598 312 567 q 282 536 271 483 l 142 483 q 155 536 181 583 q 207 625 251 660 q 284 685 324 698 q 364 711 419 711 q 521 711 572 659 q 623 606 604 518 q 591 456 544 413 q 515 386 488 376 q 507 376 536 343 q 578 294 560 208 q 541 119 464 51 q 388 -18 266 -18 q 115 -18 78 81 q 58 133 72 217 z"},";":{"x_min":0,"x_max":333,"ha":333,"o":"m 222 511 l 370 511 l 339 366 l 191 366 z m 88 -116 q 141 -102 168 -65 q 185 -43 198 0 l 113 0 l 144 146 l 294 146 l 268 20 q 260 -14 244 -50 q 228 -86 198 -112 q 167 -140 129 -155 q 91 -169 77 -169 z"},"J":{"x_min":0,"x_max":556,"ha":556,"o":"m 222 273 l 218 256 q 203 173 212 139 q 221 105 274 105 q 328 105 353 142 q 368 164 379 216 l 486 720 l 636 720 l 530 219 q 510 127 467 73 q 394 -18 254 -18 q 114 -18 82 56 q 49 129 76 256 l 80 273 z"},"V":{"x_min":0,"x_max":667,"ha":667,"o":"m 650 720 l 807 720 l 408 0 l 266 0 l 176 720 l 336 720 l 376 173 z"},"\"":{"x_min":0,"x_max":474,"ha":474,"o":"m 482 720 l 396 422 l 308 422 l 349 720 z m 297 720 l 210 422 l 123 422 l 164 720 z"},"7":{"x_min":0,"x_max":556,"ha":556,"o":"m 652 590 q 615 559 542 480 q 470 401 415 317 q 371 251 326 156 q 282 61 270 0 l 125 0 q 171 190 334 396 q 438 523 500 574 l 147 574 l 176 699 l 676 699 z"},"S":{"x_min":0,"x_max":667,"ha":667,"o":"m 232 222 q 229 173 243 148 q 271 104 359 104 q 413 104 448 116 q 516 138 529 199 q 537 235 509 254 q 482 273 418 288 l 346 305 q 239 331 202 360 q 140 410 163 516 q 183 613 267 677 q 351 741 487 741 q 601 741 668 680 q 736 620 715 505 l 571 505 q 581 570 534 598 q 503 616 451 616 q 393 616 353 592 q 313 569 304 527 q 296 488 326 469 q 345 457 414 439 l 531 410 q 608 390 643 357 q 697 307 676 210 q 655 112 566 47 q 477 -19 339 -19 q 198 -19 131 46 q 64 110 88 222 z"},"}":{"x_min":0,"x_max":389,"ha":389,"o":"m -21 -202 l -4 -124 q 34 -113 52 -99 q 82 -74 94 -21 l 121 103 q 135 172 169 205 q 203 239 267 264 q 210 295 194 335 q 179 375 192 438 l 216 552 q 228 606 214 625 q 201 645 161 654 l 177 731 q 226 731 251 726 q 293 717 320 692 q 348 667 352 629 q 357 592 351 564 l 323 434 q 309 364 333 331 q 349 312 396 295 l 383 236 q 339 224 313 206 q 268 172 254 110 l 222 -43 q 206 -117 146 -158 q 86 -199 14 -201 z"},"Z":{"x_min":0,"x_max":611,"ha":611,"o":"m 52 127 l 522 592 l 160 592 l 188 720 l 737 720 l 711 599 l 235 127 l 612 127 l 585 0 l 25 0 z"},"x":{"x_min":0,"x_max":556,"ha":556,"o":"m 13 0 l 251 270 l 133 531 l 304 531 l 360 377 l 479 531 l 645 531 l 415 272 l 539 0 l 366 0 l 308 160 l 182 0 z"},")":{"x_min":0,"x_max":333,"ha":333,"o":"m 345 538 q 374 406 345 272 q 314 125 214 -26 q 158 -111 115 -154 l 70 -202 l -32 -202 q 56 -85 98 -11 q 167 114 199 264 q 220 359 221 440 q 224 564 186 677 l 168 731 l 273 731 q 325 628 345 538 z"},"&":{"x_min":0,"x_max":722,"ha":722,"o":"m 275 393 l 292 402 q 269 438 259 474 q 250 511 258 550 q 275 629 337 673 q 399 717 483 717 q 560 717 600 672 q 641 627 626 557 q 612 493 574 454 q 536 414 470 380 l 545 254 q 568 280 584 310 q 600 339 608 373 l 731 373 q 714 307 672 240 q 648 203 604 157 l 701 0 l 532 0 l 495 61 q 452 27 417 11 q 355 -18 283 -18 q 173 -18 125 47 q 78 111 94 190 q 108 255 150 301 q 192 348 275 393 z m 392 514 q 398 500 419 464 q 453 484 469 499 q 499 525 505 556 q 510 578 499 596 q 488 613 458 613 q 440 613 422 603 q 394 588 387 555 q 383 536 392 514 z m 317 99 q 352 99 385 115 q 419 131 442 150 l 345 313 q 286 279 263 252 q 241 226 234 194 q 227 159 249 129 q 272 99 317 99 z"},"_":{"x_min":0,"x_max":556,"ha":556,"o":"m -26 -125 l -16 -76 l 540 -76 l 529 -125 z"},"v":{"x_min":0,"x_max":556,"ha":556,"o":"m 506 532 l 655 532 l 351 0 l 204 0 l 125 532 l 282 532 l 309 140 z"},"O":{"x_min":0,"x_max":778,"ha":778,"o":"m 666 361 q 691 482 653 548 q 614 614 525 614 q 436 614 368 548 q 301 482 275 361 q 250 239 289 173 q 328 107 417 107 q 506 107 573 173 q 640 239 666 361 z m 644 64 q 544 -20 390 -20 q 236 -20 172 64 q 84 167 126 361 q 168 559 298 658 q 397 742 552 742 q 706 742 770 658 q 858 559 816 361 q 774 167 644 64 z"},"(":{"x_min":0,"x_max":333,"ha":333,"o":"m 206 538 q 264 628 360 731 l 465 731 l 424 677 q 338 564 288 440 q 255 359 235 264 q 203 114 220 -11 q 229 -85 269 -202 l 166 -202 l 142 -154 q 117 -111 97 -26 q 62 125 93 272 q 121 406 206 538 z"},"C":{"x_min":0,"x_max":722,"ha":722,"o":"m 283 645 q 390 733 525 733 q 707 733 766 614 q 798 547 787 480 l 636 480 q 633 532 615 558 q 584 605 504 605 q 422 605 360 539 q 299 473 273 352 q 248 230 285 170 q 322 110 399 110 q 478 110 531 162 q 560 189 586 245 l 735 245 q 691 127 595 54 q 499 -20 374 -20 q 218 -20 150 80 q 83 180 120 354 q 160 542 283 645 z"},"W":{"x_min":0,"x_max":944,"ha":944,"o":"m 327 720 l 334 308 l 331 193 l 375 305 l 545 720 l 704 720 l 701 308 l 699 193 l 744 303 l 929 720 l 1082 720 l 727 0 l 583 0 l 585 421 l 589 560 l 535 421 l 358 0 l 219 0 l 167 720 z"},"A":{"x_min":0,"x_max":722,"ha":722,"o":"m 331 272 l 513 272 l 483 555 z m 435 720 l 605 720 l 707 0 l 544 0 l 529 148 l 264 148 l 183 0 l 25 0 z"},"f":{"x_min":0,"x_max":333,"ha":333,"o":"m 468 724 l 444 611 q 433 612 405 613 q 378 614 365 601 q 351 588 348 572 q 345 557 338 527 l 430 527 l 409 429 l 317 429 l 227 0 l 88 0 l 179 429 l 101 429 l 122 527 l 198 527 l 206 562 q 224 647 259 679 q 300 727 416 727 q 429 727 439 726 q 450 726 468 724 z"},"Q":{"x_min":0,"x_max":778,"ha":778,"o":"m 467 114 q 481 117 503 126 l 445 195 l 540 276 l 598 207 q 623 242 635 269 q 654 308 666 361 q 691 482 656 548 q 620 614 525 614 q 436 614 369 551 q 302 487 275 361 q 244 213 306 149 q 347 107 416 107 q 441 107 467 114 z m 760 210 q 728 148 682 107 l 749 30 l 653 -52 l 583 30 q 539 6 508 -4 q 456 -20 389 -20 q 248 -20 174 64 q 84 165 126 361 q 167 558 303 659 q 414 742 553 742 q 692 742 769 654 q 856 553 818 372 q 797 275 760 210 z"},"w":{"x_min":0,"x_max":778,"ha":778,"o":"m 429 532 l 570 532 l 569 149 l 734 532 l 879 532 l 612 0 l 469 0 l 467 388 l 301 0 l 156 0 l 120 532 l 269 532 l 271 150 z"},"-":{"x_min":0,"x_max":333,"ha":333,"o":"m 96 345 l 376 345 l 348 213 l 68 213 z"},"E":{"x_min":0,"x_max":667,"ha":667,"o":"m 734 592 l 353 592 l 321 439 l 670 439 l 644 314 l 294 314 l 255 129 l 653 129 l 626 0 l 81 0 l 233 720 l 761 720 z"},"s":{"x_min":0,"x_max":556,"ha":556,"o":"m 209 170 q 206 133 217 117 q 237 89 307 89 q 348 89 375 102 q 401 114 407 138 q 412 162 395 174 q 377 186 258 216 q 173 238 143 272 q 113 305 126 368 q 142 441 211 494 q 280 547 385 547 q 485 547 539 508 q 593 468 582 370 l 443 370 q 445 397 437 413 q 419 441 364 441 q 319 441 297 427 q 274 413 271 394 q 265 370 284 359 q 302 348 420 320 q 499 301 532 261 q 565 221 552 161 q 535 82 466 32 q 396 -18 273 -18 q 148 -18 99 35 q 51 88 68 170 z"},">":{"x_min":0,"x_max":584,"ha":584,"o":"m 629 202 l 7 -17 l 36 119 l 479 265 l 98 410 l 127 546 l 655 326 z"},"l":{"x_min":0,"x_max":278,"ha":278,"o":"m 207 0 l 68 0 l 221 720 l 360 720 z"},"8":{"x_min":0,"x_max":556,"ha":556,"o":"m 293 96 q 341 96 374 125 q 407 153 418 206 q 430 260 408 288 q 387 316 340 316 q 293 316 260 288 q 226 260 214 206 q 203 153 224 125 q 245 96 293 96 z m 213 377 q 168 411 162 451 q 155 491 162 525 q 179 603 248 657 q 318 711 424 711 q 530 711 576 657 q 623 603 606 525 q 599 491 575 451 q 551 411 494 382 q 540 353 556 304 q 572 256 560 196 q 541 107 461 44 q 381 -19 263 -19 q 144 -19 96 44 q 49 107 68 196 q 81 256 118 304 q 155 353 213 377 z m 362 422 q 405 422 433 447 q 462 471 470 510 q 479 552 461 575 q 442 599 400 599 q 358 599 329 575 q 301 552 292 510 q 284 471 302 447 q 320 422 362 422 z"},"\\":{"x_min":0,"x_max":278,"ha":278,"o":"m 217 742 l 340 0 l 224 0 l 103 742 z"},"e":{"x_min":0,"x_max":556,"ha":556,"o":"m 234 319 l 451 319 q 459 375 435 403 q 411 432 366 432 q 318 432 285 401 q 252 371 234 319 z m 576 443 q 598 396 593 333 q 591 296 576 228 l 211 228 q 197 147 238 115 q 262 95 303 95 q 346 95 378 120 q 395 133 412 156 l 554 156 q 538 109 484 60 q 399 -18 276 -18 q 174 -18 111 48 q 47 113 78 261 q 107 399 193 473 q 279 546 391 546 q 457 546 505 521 q 553 497 576 443 z"},"b":{"x_min":0,"x_max":611,"ha":611,"o":"m 634 273 q 607 149 531 67 q 456 -14 351 -14 q 285 -14 250 12 q 230 28 210 67 l 196 0 l 60 0 l 212 719 l 351 719 l 297 463 q 331 500 367 520 q 410 544 468 544 q 573 544 616 468 q 659 393 634 273 z m 485 258 q 497 315 490 352 q 477 422 402 422 q 327 422 284 354 q 261 317 249 259 q 234 190 255 146 q 276 101 338 101 q 392 101 431 144 q 470 188 485 258 z"},"%":{"x_min":0,"x_max":889,"ha":889,"o":"m 393 523 q 400 555 382 578 q 364 601 332 601 q 300 601 272 578 q 245 555 238 523 q 231 491 249 468 q 267 445 299 445 q 331 445 359 468 q 386 491 393 523 z m 277 341 q 202 341 160 395 q 118 448 134 523 q 150 598 214 651 q 279 705 354 705 q 429 705 471 651 q 513 598 497 523 q 481 448 417 395 q 353 341 277 341 z m 731 245 q 699 245 671 222 q 644 200 637 167 q 630 135 648 113 q 666 90 698 90 q 730 90 758 113 q 785 135 792 167 q 799 200 781 222 q 763 245 731 245 z m 676 -14 q 601 -14 559 39 q 517 92 533 167 q 549 243 613 296 q 678 349 753 349 q 828 349 870 296 q 912 243 896 167 q 880 92 816 39 q 751 -14 676 -14 z m 752 708 l 826 708 l 277 -19 l 201 -19 z"},"m":{"x_min":0,"x_max":889,"ha":889,"o":"m 894 482 q 910 455 909 414 q 908 387 897 335 l 825 0 l 683 0 l 754 339 q 761 369 755 389 q 745 426 695 426 q 637 426 605 378 q 588 353 581 317 l 514 0 l 374 0 l 440 317 q 451 364 445 386 q 436 424 385 424 q 325 424 296 386 q 281 364 271 320 l 204 0 l 62 0 l 175 531 l 311 531 l 294 454 q 329 495 355 513 q 402 544 467 544 q 528 544 560 517 q 585 492 592 453 q 629 500 675 522 q 722 544 775 544 q 810 544 841 530 q 873 517 894 482 z"},"#":{"x_min":0,"x_max":556,"ha":556,"o":"m 357 277 l 427 420 l 346 420 l 277 277 z m 81 277 l 180 277 l 249 420 l 149 420 l 188 502 l 288 502 l 383 699 l 480 699 l 385 502 l 466 502 l 560 699 l 657 699 l 563 502 l 662 502 l 622 420 l 524 420 l 454 277 l 554 277 l 515 195 l 415 195 l 321 0 l 224 0 l 318 195 l 238 195 l 143 0 l 46 0 l 141 195 l 42 195 z"},",":{"x_min":0,"x_max":278,"ha":278,"o":"m 33 -116 q 77 -104 103 -77 q 128 -49 142 0 l 58 0 l 88 146 l 239 146 l 212 20 q 205 -14 188 -50 q 172 -86 143 -112 q 110 -141 73 -155 q 35 -169 21 -169 z"},"n":{"x_min":0,"x_max":611,"ha":611,"o":"m 624 358 l 547 0 l 405 0 l 473 324 q 482 366 476 388 q 464 429 406 429 q 335 429 296 369 q 276 337 266 288 l 205 0 l 66 0 l 179 531 l 313 531 l 296 454 q 332 495 360 513 q 410 545 476 545 q 558 545 601 502 q 645 458 624 358 z"},"h":{"x_min":0,"x_max":611,"ha":611,"o":"m 615 477 q 631 447 629 415 q 627 384 612 312 l 546 0 l 404 0 l 472 324 q 481 367 473 393 q 461 430 408 430 q 353 430 317 393 q 280 356 266 288 l 205 0 l 66 0 l 218 717 l 357 717 l 303 463 q 343 509 386 528 q 430 546 474 546 q 523 546 560 529 q 597 512 615 477 z"},"z":{"x_min":0,"x_max":500,"ha":500,"o":"m 124 419 l 147 532 l 579 532 l 555 417 l 220 114 l 500 114 l 476 0 l 16 0 l 39 108 l 378 419 z"},"B":{"x_min":0,"x_max":722,"ha":722,"o":"m 348 595 l 314 436 l 491 436 q 539 436 572 454 q 605 472 615 517 q 625 567 590 583 q 559 595 506 595 z m 289 317 l 249 125 l 425 125 q 473 125 501 138 q 555 161 569 228 q 581 284 539 305 q 515 316 468 317 z m 752 643 q 775 597 762 533 q 748 467 706 427 q 683 405 643 386 q 694 366 713 323 q 731 279 718 217 q 705 153 662 103 q 634 69 598 46 q 558 20 509 10 q 460 0 405 0 l 79 0 l 231 720 l 581 720 q 713 718 752 643 z"},"K":{"x_min":0,"x_max":722,"ha":722,"o":"m 231 720 l 379 720 l 316 423 l 657 720 l 852 720 l 494 423 l 714 0 l 521 0 l 365 314 l 277 241 l 227 0 l 79 0 z"},"R":{"x_min":0,"x_max":722,"ha":722,"o":"m 353 595 l 312 401 l 482 401 q 533 401 561 413 q 610 434 623 494 q 637 560 598 582 q 576 595 527 595 z m 756 651 q 774 624 781 590 q 787 557 778 515 q 767 463 731 414 q 694 364 630 344 q 676 324 689 287 q 702 250 686 174 l 675 126 q 665 77 665 59 q 665 31 684 18 l 680 0 l 515 0 q 513 24 513 39 q 513 69 520 101 l 533 167 q 546 236 527 259 q 508 282 441 282 l 286 282 l 227 0 l 80 0 l 232 720 l 585 720 q 661 718 698 701 q 735 684 756 651 z"},"T":{"x_min":0,"x_max":611,"ha":611,"o":"m 752 720 l 725 592 l 509 592 l 384 0 l 232 0 l 358 592 l 142 592 l 169 720 z"},"P":{"x_min":0,"x_max":667,"ha":667,"o":"m 495 595 l 355 595 l 310 383 l 450 383 q 503 383 539 409 q 574 435 585 491 q 598 547 573 571 q 548 595 495 595 z m 437 259 l 284 259 l 229 0 l 80 0 l 232 720 l 546 720 q 654 720 707 664 q 759 608 735 492 q 708 364 632 312 q 556 259 437 259 z"},"|":{"x_min":0,"x_max":280,"ha":280,"o":"m 334 727 l 180 0 l 52 0 l 206 727 z"},"t":{"x_min":0,"x_max":333,"ha":333,"o":"m 101 428 l 122 527 l 196 527 l 228 676 l 366 676 l 334 527 l 420 527 l 399 428 l 313 428 l 253 147 q 246 114 253 106 q 259 98 302 98 q 308 98 315 98 q 322 99 330 99 l 307 -5 l 241 -7 q 142 -11 113 27 q 95 51 105 101 l 175 428 z"},"M":{"x_min":0,"x_max":833,"ha":833,"o":"m 706 720 l 922 720 l 770 0 l 629 0 l 732 487 q 737 508 746 546 q 754 583 758 604 l 494 0 l 348 0 l 341 604 q 337 583 329 546 q 322 508 317 487 l 214 0 l 74 0 l 227 720 l 445 720 l 456 154 z"},"g":{"x_min":0,"x_max":611,"ha":611,"o":"m 466 269 q 482 344 459 384 q 436 423 382 423 q 309 423 266 354 q 244 318 232 264 q 222 218 230 182 q 244 114 317 114 q 366 114 408 151 q 449 188 466 269 z m 441 533 q 488 512 507 456 l 523 532 l 659 532 l 551 27 q 530 -76 484 -128 q 405 -218 236 -218 q 134 -218 78 -178 q 22 -138 32 -58 l 184 -58 q 185 -83 195 -93 q 214 -112 267 -112 q 342 -112 378 -62 q 402 -30 418 46 l 425 81 q 398 46 371 29 q 323 -2 256 -2 q 154 -2 108 70 q 62 142 88 265 q 113 383 190 464 q 266 545 375 545 q 415 545 441 533 z"},"j":{"x_min":0,"x_max":278,"ha":278,"o":"m 337 596 l 198 596 l 225 724 l 364 724 z m -17 -102 q -5 -103 -1 -103 q 3 -104 7 -104 q 28 -104 41 -94 q 53 -83 60 -55 l 184 530 l 323 530 l 198 -57 q 181 -138 141 -176 q 101 -215 8 -215 q 2 -215 -10 -214 q -22 -214 -41 -213 z"},"i":{"x_min":0,"x_max":278,"ha":278,"o":"m 334 596 l 193 596 l 221 724 l 362 724 z m 180 532 l 321 532 l 208 0 l 67 0 z"},"y":{"x_min":0,"x_max":556,"ha":556,"o":"m 64 -102 l 82 -103 q 102 -104 121 -102 q 140 -99 155 -90 q 169 -82 185 -56 q 201 -29 200 -23 l 123 532 l 278 532 l 311 140 l 504 532 l 652 532 l 358 9 q 273 -143 235 -179 q 196 -215 104 -215 q 85 -215 74 -215 q 63 -215 41 -213 z"},"@":{"x_min":0,"x_max":975,"ha":975,"o":"m 629 504 q 578 504 528 441 q 478 378 465 319 q 458 283 470 261 q 481 239 511 239 q 563 239 614 319 q 664 398 674 443 q 679 469 667 487 q 655 504 629 504 z m 361 329 q 380 417 456 494 q 533 571 620 571 q 671 571 694 543 q 710 521 712 493 l 743 554 l 835 554 l 728 342 q 714 316 708 304 q 703 292 701 282 q 698 268 705 255 q 712 242 733 242 q 775 242 829 297 q 883 352 902 442 q 931 577 828 635 q 764 672 673 672 q 507 672 385 571 q 275 479 248 351 q 217 208 306 125 q 385 51 521 51 q 613 51 701 85 q 749 103 803 136 l 816 145 l 840 90 q 759 36 673 8 q 586 -20 499 -20 q 296 -20 212 106 q 142 210 172 354 q 206 514 345 625 q 491 743 680 743 q 834 743 918 662 q 1006 577 977 437 q 953 326 868 246 q 784 167 698 167 q 653 167 634 192 q 615 218 621 245 q 622 248 623 252 q 624 256 625 261 q 600 226 572 205 q 522 167 464 167 q 405 167 375 210 q 345 252 361 329 z"},".":{"x_min":0,"x_max":278,"ha":278,"o":"m 93 146 l 241 146 l 210 0 l 62 0 z"},"p":{"x_min":0,"x_max":611,"ha":611,"o":"m 402 422 q 326 422 283 351 q 260 312 248 254 q 228 161 269 124 q 294 102 334 102 q 392 102 432 146 q 472 191 488 266 q 501 328 483 375 q 465 422 402 422 z m 633 273 q 603 132 524 59 q 445 -15 346 -15 q 282 -15 247 17 q 228 34 213 68 l 154 -209 l 16 -209 l 174 532 l 307 532 l 291 454 q 320 488 350 508 q 404 544 468 544 q 561 544 611 475 q 661 406 633 273 z"},"X":{"x_min":0,"x_max":667,"ha":667,"o":"m 191 0 l 16 0 l 325 367 l 180 720 l 360 720 l 438 486 l 620 720 l 794 720 l 500 373 l 655 0 l 472 0 l 387 245 z"},"*":{"x_min":0,"x_max":389,"ha":389,"o":"m 182 640 l 276 606 l 302 724 l 386 724 l 361 606 l 470 640 l 478 567 l 367 535 l 414 438 l 342 393 l 294 485 l 205 393 l 151 438 l 240 535 l 143 567 z"},"Y":{"x_min":0,"x_max":667,"ha":667,"o":"m 640 720 l 810 720 l 474 271 l 417 0 l 266 0 l 323 271 l 170 720 l 347 720 l 430 406 z"},"c":{"x_min":0,"x_max":556,"ha":556,"o":"m 455 341 q 458 371 446 395 q 430 427 380 427 q 310 427 270 357 q 248 320 235 259 q 223 200 229 165 q 239 98 308 98 q 357 98 383 125 q 409 151 422 193 l 564 193 q 546 129 493 73 q 408 -19 280 -19 q 151 -19 107 58 q 63 134 89 255 q 118 393 201 469 q 284 545 402 545 q 502 545 556 500 q 610 455 598 341 z"},"!":{"x_min":0,"x_max":333,"ha":333,"o":"m 262 717 l 415 717 l 376 535 l 265 199 l 192 199 l 223 535 z m 143 141 l 289 141 l 259 0 l 113 0 z"},"/":{"x_min":0,"x_max":278,"ha":278,"o":"m 381 742 l 497 742 l 60 0 l -55 0 z"},"[":{"x_min":0,"x_max":333,"ha":333,"o":"m 217 727 l 462 727 l 440 625 l 327 625 l 175 -90 l 288 -90 l 267 -192 l 21 -192 z"},"6":{"x_min":0,"x_max":556,"ha":556,"o":"m 300 95 q 346 95 380 130 q 414 165 426 220 q 439 282 416 315 q 393 348 349 348 q 313 348 281 327 q 233 295 218 224 q 206 167 229 131 q 252 95 300 95 z m 479 530 q 483 547 474 567 q 458 601 413 601 q 345 601 300 524 q 276 482 252 400 q 285 431 322 445 q 359 459 403 459 q 498 459 544 396 q 591 332 569 232 q 548 133 473 57 q 398 -19 273 -19 q 140 -19 100 93 q 69 181 99 319 q 116 400 134 451 q 165 541 213 601 q 254 652 310 684 q 366 715 434 715 q 533 715 581 664 q 628 614 618 530 z"},"r":{"x_min":0,"x_max":389,"ha":389,"o":"m 488 544 l 458 401 q 445 403 435 403 q 424 404 418 404 q 334 404 293 349 q 271 318 257 254 l 204 0 l 63 0 l 176 532 l 309 532 l 290 439 q 333 493 361 512 q 407 545 470 545 q 474 545 476 545 q 479 544 488 544 z"},"2":{"x_min":0,"x_max":556,"ha":556,"o":"m 93 139 q 138 210 266 289 q 376 358 411 388 q 464 434 476 489 q 486 534 467 564 q 449 594 402 594 q 339 594 306 546 q 287 519 272 459 l 137 459 q 159 550 200 605 q 278 711 420 711 q 533 711 586 649 q 639 587 617 484 q 601 406 541 345 q 501 304 420 254 l 356 215 q 296 178 273 161 q 250 145 233 123 l 542 123 l 516 0 l 31 0 q 49 76 93 139 z"},"{":{"x_min":0,"x_max":389,"ha":389,"o":"m 125 110 q 138 171 107 204 q 89 224 50 236 l 62 295 q 113 311 137 331 q 179 364 193 434 l 221 564 q 227 589 241 617 q 266 664 307 692 q 344 717 389 726 q 417 731 466 731 l 450 654 q 407 645 390 630 q 362 608 351 552 l 326 438 q 315 384 293 352 q 257 297 177 264 q 237 237 252 201 q 268 166 255 103 l 229 -21 q 217 -75 238 -99 q 250 -113 285 -124 l 268 -202 l 233 -201 q 164 -199 120 -159 q 76 -119 92 -43 z"},"9":{"x_min":0,"x_max":556,"ha":556,"o":"m 417 714 q 579 714 609 571 q 626 490 598 357 q 570 229 520 143 q 422 -21 255 -21 q 176 -21 122 27 q 69 74 79 164 l 217 164 q 215 133 233 113 q 250 94 286 94 q 354 94 398 170 q 423 212 444 292 q 419 269 396 256 q 352 232 294 232 q 210 232 157 291 q 104 349 127 459 q 151 573 232 643 q 312 714 417 714 z m 406 362 q 460 393 476 467 q 489 527 468 562 q 448 598 399 598 q 363 598 333 578 q 287 546 271 472 q 257 409 276 377 q 295 346 349 346 q 377 346 406 362 z"}," ":{"x_min":0,"x_max":278,"ha":278,"o":""},"I":{"x_min":0,"x_max":278,"ha":278,"o":"m 214 0 l 64 0 l 217 720 l 367 720 z"},"H":{"x_min":0,"x_max":722,"ha":722,"o":"m 75 0 l 228 720 l 377 720 l 318 445 l 600 445 l 658 720 l 808 720 l 655 0 l 505 0 l 573 321 l 292 321 l 224 0 z"},"4":{"x_min":0,"x_max":556,"ha":556,"o":"m 555 152 l 475 152 l 443 0 l 307 0 l 339 152 l 59 152 l 84 274 l 436 704 l 592 704 l 498 261 l 578 261 z m 362 261 l 427 567 l 185 261 z"},"~":{"x_min":0,"x_max":584,"ha":584,"o":"m 131 318 q 161 346 188 358 q 216 369 243 369 q 255 369 273 366 q 303 361 327 352 l 431 308 q 449 300 467 297 q 485 293 496 293 q 528 293 552 319 q 577 344 593 379 l 676 379 q 644 289 589 224 q 535 159 465 159 q 452 159 437 161 q 409 166 372 182 l 278 221 q 265 226 246 230 q 226 235 216 235 q 188 235 162 214 q 136 192 118 149 l 33 149 q 54 207 78 249 q 103 291 131 318 z"},"D":{"x_min":0,"x_max":722,"ha":722,"o":"m 348 595 l 249 125 l 387 125 q 494 125 558 230 q 593 288 610 367 q 633 477 611 536 q 589 595 487 595 z m 647 704 q 717 679 750 613 q 776 559 777 497 q 777 434 765 377 q 734 234 656 134 q 549 0 386 0 l 76 0 l 229 720 l 539 720 q 605 719 647 704 z"},"^":{"x_min":0,"x_max":584,"ha":584,"o":"m 510 720 l 598 288 l 475 288 l 423 564 l 252 288 l 129 288 l 400 720 z"},"0":{"x_min":0,"x_max":556,"ha":556,"o":"m 295 96 q 357 96 390 160 q 423 225 450 347 q 477 475 470 537 q 464 598 402 598 q 340 598 307 537 q 274 475 247 347 q 221 225 227 160 q 233 96 295 96 z m 593 347 q 556 172 481 77 q 407 -18 271 -18 q 136 -18 102 77 q 67 172 105 347 q 142 522 217 618 q 292 713 427 713 q 562 713 596 618 q 630 522 593 347 z"},"F":{"x_min":0,"x_max":611,"ha":611,"o":"m 229 719 l 739 719 l 712 592 l 351 592 l 316 427 l 632 427 l 605 302 l 290 302 l 226 0 l 76 0 z"},"`":{"x_min":0,"x_max":333,"ha":333,"o":"m 352 604 l 251 604 l 135 750 l 290 750 z"},"k":{"x_min":0,"x_max":556,"ha":556,"o":"m 216 717 l 353 717 l 270 330 l 486 530 l 658 530 l 429 326 l 553 0 l 385 0 l 306 228 l 235 167 l 200 0 l 63 0 z"},"u":{"x_min":0,"x_max":611,"ha":611,"o":"m 316 532 l 249 211 q 239 166 245 143 q 255 103 311 103 q 382 103 420 160 q 441 191 452 243 l 513 532 l 654 532 l 542 0 l 406 0 l 422 75 q 419 73 409 61 q 399 48 386 39 q 347 10 314 -1 q 281 -12 240 -12 q 122 -12 99 73 q 86 120 106 211 l 174 532 z"},"]":{"x_min":0,"x_max":333,"ha":333,"o":"m 3 -90 l 117 -90 l 269 627 l 156 627 l 177 727 l 422 727 l 227 -192 l -18 -192 z"},"U":{"x_min":0,"x_max":722,"ha":722,"o":"m 229 720 l 382 720 l 288 277 q 272 203 282 169 q 297 108 389 108 q 480 108 520 169 q 545 203 561 277 l 655 720 l 808 720 l 713 277 q 689 163 640 99 q 548 -19 361 -19 q 174 -19 132 99 q 110 163 135 277 z"},"o":{"x_min":0,"x_max":611,"ha":611,"o":"m 486 265 q 503 345 480 388 q 456 432 395 432 q 334 432 292 388 q 250 345 233 265 q 216 185 240 142 q 263 98 324 98 q 385 98 427 142 q 469 185 486 265 z m 300 -19 q 163 -19 113 65 q 63 148 88 265 q 113 380 198 465 q 284 549 421 549 q 558 549 607 465 q 657 380 632 265 q 607 148 522 65 q 437 -19 300 -19 z"},"N":{"x_min":0,"x_max":722,"ha":722,"o":"m 227 720 l 384 720 l 564 217 l 671 720 l 811 720 l 658 0 l 508 0 l 322 511 l 214 0 l 74 0 z"},"+":{"x_min":0,"x_max":584,"ha":584,"o":"m 78 201 l 105 329 l 306 329 l 348 529 l 477 529 l 434 329 l 634 329 l 607 201 l 407 201 l 364 0 l 236 0 l 278 201 z"},"G":{"x_min":0,"x_max":778,"ha":778,"o":"m 665 495 q 664 569 604 598 q 570 614 524 614 q 438 614 368 549 q 298 483 270 351 q 242 218 290 163 q 339 108 416 108 q 492 108 550 152 q 607 195 633 266 l 467 266 l 493 386 l 792 386 l 710 0 l 611 0 l 615 90 q 560 39 521 18 q 454 -19 367 -19 q 224 -19 153 80 q 80 180 116 353 q 153 527 272 633 q 391 738 549 738 q 686 738 754 669 q 823 599 813 495 z"},"q":{"x_min":0,"x_max":611,"ha":611,"o":"m 427 164 q 456 205 469 267 q 479 315 471 354 q 456 423 381 423 q 328 423 288 383 q 247 342 229 260 q 218 205 225 169 q 238 103 312 103 q 384 103 427 164 z m 472 513 q 492 495 507 452 l 524 531 l 659 531 l 501 -211 l 363 -211 l 422 66 q 399 34 356 9 q 313 -17 248 -17 q 155 -17 106 57 q 57 131 83 254 q 111 387 193 466 q 275 546 371 546 q 438 546 472 513 z"},"d":{"x_min":0,"x_max":611,"ha":611,"o":"m 507 465 l 561 719 l 702 719 l 549 0 l 414 0 l 430 74 q 390 26 347 5 q 304 -17 248 -17 q 154 -17 107 59 q 59 134 84 252 q 113 389 193 467 q 272 545 377 545 q 425 545 458 524 q 491 502 507 465 z m 467 258 q 487 356 447 398 q 422 423 382 423 q 321 423 283 377 q 245 331 230 263 q 214 189 234 145 q 253 101 312 101 q 372 101 412 145 q 452 188 467 258 z"},"1":{"x_min":0,"x_max":556,"ha":556,"o":"m 173 488 l 193 583 q 260 586 287 592 q 331 601 363 629 q 386 648 401 680 q 411 699 413 708 l 529 708 l 378 0 l 236 0 l 339 488 z"},"5":{"x_min":0,"x_max":556,"ha":556,"o":"m 205 189 q 204 144 222 119 q 240 95 285 95 q 337 95 372 131 q 406 167 418 223 q 430 277 412 314 q 395 352 341 352 q 316 352 296 345 q 261 333 237 302 l 113 308 l 247 699 l 637 699 l 611 581 l 322 581 l 264 426 q 300 447 320 454 q 353 465 396 465 q 484 465 537 406 q 589 347 565 234 q 545 136 465 59 q 386 -19 260 -19 q 159 -19 106 36 q 53 90 66 189 z"}}}
